<svg width="15" height="15" viewBox="0 0 15 15" fill="none" xmlns="http://www.w3.org/2000/svg">
<path d="M7.94 10.4654L11.44 6.26538H4.44L7.94 10.4654Z" fill="#343A40"/>
<path d="M7.94 0.665283C4.0802 0.665283 0.940002 3.80548 0.940002 7.66528C0.940002 11.5251 4.0802 14.6653 7.94 14.6653C11.7998 14.6653 14.94 11.5251 14.94 7.66528C14.94 3.80548 11.7998 0.665283 7.94 0.665283ZM7.94 13.2653C4.8523 13.2653 2.34 10.753 2.34 7.66528C2.34 4.57758 4.8523 2.06528 7.94 2.06528C11.0277 2.06528 13.54 4.57758 13.54 7.66528C13.54 10.753 11.0277 13.2653 7.94 13.2653Z" fill="#343A40"/>
</svg>
