<svg width="46" height="26" viewBox="0 0 46 26" fill="none" xmlns="http://www.w3.org/2000/svg">
<path d="M29.6674 9.67336L27.8557 6.05007L24.4055 12.9505C24.2694 13.2226 24.0601 13.4514 23.8013 13.6113C23.5425 13.7712 23.2442 13.8558 22.94 13.8558C22.8943 13.8558 22.8471 13.8538 22.7987 13.8497C22.4707 13.8225 22.1585 13.6971 21.9028 13.49C21.6471 13.2828 21.4596 13.0035 21.3649 12.6883L17.6372 0.259766L14.5649 6.39622C14.4294 6.6669 14.2216 6.89477 13.9646 7.05457C13.7075 7.21437 13.4112 7.29985 13.1086 7.30153H3.82504C4.78087 9.30127 6.05316 11.2696 7.64189 13.2065C9.56414 15.5497 13.0492 19.2959 21.0976 24.7595C21.6404 25.1315 22.283 25.3306 22.941 25.3306C23.599 25.3306 24.2416 25.1315 24.7844 24.7595C32.8329 19.2959 36.3179 15.5497 38.2402 13.2065C38.9325 12.3638 39.5819 11.4868 40.186 10.5787H31.1329C30.8286 10.5787 30.5304 10.494 30.2715 10.3341C30.0127 10.1742 29.8035 9.94544 29.6674 9.67336ZM44.2414 7.30153H42.055C41.5102 8.43671 40.8856 9.53184 40.186 10.5787H44.2414C44.676 10.5787 45.0928 10.406 45.4001 10.0987C45.7074 9.79146 45.88 9.37468 45.88 8.9401C45.88 8.50552 45.7074 8.08875 45.4001 7.78145C45.0928 7.47416 44.676 7.30153 44.2414 7.30153ZM1.63857 4.02438C1.204 4.02438 0.787218 4.19702 0.479926 4.50431C0.172635 4.8116 0 5.22838 0 5.66296C0 6.09753 0.172635 6.51431 0.479926 6.8216C0.787218 7.12889 1.204 7.30153 1.63857 7.30153H3.82504C3.31831 6.24309 2.8931 5.14753 2.5531 4.02438H1.63857Z" fill="#5F6F52"/>
</svg>
