<svg width="142" height="19" viewBox="0 0 142 19" fill="none" xmlns="http://www.w3.org/2000/svg">
<path d="M13.9269 9.74731V16.509C13.6613 16.8293 13.2511 17.177 12.6964 17.552C12.1417 17.9192 11.4269 18.2356 10.5519 18.5012C9.67688 18.7668 8.61829 18.8997 7.3761 18.8997C6.27454 18.8997 5.27063 18.72 4.36438 18.3606C3.45813 17.9934 2.67688 17.4583 2.02063 16.7551C1.37219 16.052 0.872192 15.1926 0.52063 14.177C0.169067 13.1536 -0.00671387 11.9856 -0.00671387 10.6731V9.60669C-0.00671387 8.29419 0.161255 7.12622 0.497192 6.10278C0.840942 5.07935 1.32922 4.21606 1.96204 3.51294C2.59485 2.80981 3.34875 2.27466 4.22375 1.90747C5.09875 1.54028 6.07141 1.35669 7.14172 1.35669C8.6261 1.35669 9.84485 1.59888 10.798 2.08325C11.7511 2.55981 12.4777 3.22388 12.9777 4.07544C13.4855 4.91919 13.798 5.88794 13.9152 6.98169H10.505C10.4191 6.40356 10.255 5.89966 10.0128 5.46997C9.77063 5.04028 9.42297 4.70435 8.96985 4.46216C8.52454 4.21997 7.94641 4.09888 7.23547 4.09888C6.64954 4.09888 6.1261 4.21997 5.66516 4.46216C5.21204 4.69653 4.82922 5.04419 4.51672 5.50513C4.20422 5.96606 3.96594 6.53638 3.80188 7.21606C3.63782 7.89575 3.55579 8.68481 3.55579 9.58325V10.6731C3.55579 11.5637 3.64172 12.3528 3.8136 13.0403C3.98547 13.72 4.23938 14.2942 4.57532 14.7629C4.91907 15.2239 5.34094 15.5715 5.84094 15.8059C6.34094 16.0403 6.92297 16.1575 7.58704 16.1575C8.14172 16.1575 8.60266 16.1106 8.96985 16.0168C9.34485 15.9231 9.64563 15.8098 9.87219 15.677C10.1066 15.5364 10.2863 15.4036 10.4113 15.2786V12.2551H7.20032V9.74731H13.9269ZM19.9269 8.75122V18.6653H16.5519V5.9856H19.7277L19.9269 8.75122ZM23.7472 5.90356L23.6886 9.03247C23.5245 9.00903 23.3253 8.9895 23.0909 8.97388C22.8644 8.95044 22.6573 8.93872 22.4698 8.93872C21.9933 8.93872 21.5792 9.00122 21.2277 9.12622C20.8839 9.24341 20.5948 9.41919 20.3605 9.65356C20.1339 9.88794 19.962 10.1731 19.8448 10.509C19.7355 10.845 19.673 11.2278 19.6573 11.6575L18.9777 11.4465C18.9777 10.6262 19.0597 9.87231 19.2238 9.18481C19.3878 8.4895 19.6261 7.88403 19.9386 7.36841C20.2589 6.85278 20.6495 6.45435 21.1105 6.1731C21.5714 5.89185 22.0988 5.75122 22.6925 5.75122C22.88 5.75122 23.0714 5.76685 23.2667 5.7981C23.462 5.82153 23.6222 5.85669 23.7472 5.90356ZM30.9425 18.8997C29.9581 18.8997 29.0753 18.7434 28.2941 18.4309C27.5128 18.1106 26.8488 17.6692 26.3019 17.1067C25.7628 16.5442 25.3488 15.8918 25.0597 15.1497C24.7706 14.3997 24.6261 13.6028 24.6261 12.759V12.2903C24.6261 11.3293 24.7628 10.4504 25.0363 9.65356C25.3097 8.85669 25.7003 8.16528 26.2081 7.57935C26.7238 6.99341 27.3488 6.54419 28.0831 6.23169C28.8175 5.91138 29.6456 5.75122 30.5675 5.75122C31.4659 5.75122 32.2628 5.89966 32.9581 6.19653C33.6534 6.49341 34.2355 6.91528 34.7042 7.46216C35.1808 8.00903 35.5402 8.66528 35.7823 9.43091C36.0245 10.1887 36.1456 11.0325 36.1456 11.9622V13.3684H26.0675V11.1184H32.8292V10.8606C32.8292 10.3918 32.7433 9.97388 32.5714 9.60669C32.4073 9.23169 32.1573 8.93481 31.8214 8.71606C31.4855 8.49731 31.0558 8.38794 30.5323 8.38794C30.087 8.38794 29.7042 8.4856 29.3839 8.68091C29.0636 8.87622 28.8019 9.14966 28.5988 9.50122C28.4034 9.85278 28.255 10.2668 28.1534 10.7434C28.0597 11.2122 28.0128 11.7278 28.0128 12.2903V12.759C28.0128 13.2668 28.0831 13.7356 28.2238 14.1653C28.3722 14.595 28.5792 14.9661 28.8448 15.2786C29.1183 15.5911 29.4464 15.8333 29.8292 16.0051C30.2198 16.177 30.6613 16.2629 31.1534 16.2629C31.7628 16.2629 32.3292 16.1458 32.8527 15.9114C33.3839 15.6692 33.8409 15.3059 34.2238 14.8215L35.8644 16.6028C35.5988 16.9856 35.2355 17.3528 34.7745 17.7043C34.3214 18.0559 33.7745 18.345 33.1339 18.5715C32.4933 18.7903 31.7628 18.8997 30.9425 18.8997ZM44.9113 15.8059V10.1575C44.9113 9.75122 44.8448 9.40356 44.712 9.1145C44.5792 8.81763 44.3722 8.58716 44.0909 8.4231C43.8175 8.25903 43.462 8.177 43.0245 8.177C42.6495 8.177 42.3253 8.24341 42.0519 8.37622C41.7784 8.50122 41.5675 8.68481 41.4191 8.927C41.2706 9.16138 41.1964 9.43872 41.1964 9.75903H37.8214C37.8214 9.21997 37.9464 8.70825 38.1964 8.22388C38.4464 7.7395 38.8097 7.31372 39.2863 6.94653C39.7628 6.57153 40.3292 6.27856 40.9855 6.06763C41.6495 5.85669 42.3917 5.75122 43.212 5.75122C44.1964 5.75122 45.0714 5.91528 45.837 6.24341C46.6027 6.57153 47.2042 7.06372 47.6417 7.71997C48.087 8.37622 48.3097 9.19653 48.3097 10.1809V15.6067C48.3097 16.302 48.3527 16.8723 48.4386 17.3176C48.5245 17.7551 48.6495 18.1379 48.8136 18.4661V18.6653H45.4034C45.2394 18.3215 45.1144 17.8918 45.0284 17.3762C44.9503 16.8528 44.9113 16.3293 44.9113 15.8059ZM45.3566 10.9426L45.38 12.8528H43.4933C43.048 12.8528 42.6613 12.9036 42.3331 13.0051C42.005 13.1067 41.7355 13.2512 41.5245 13.4387C41.3136 13.6184 41.1573 13.8293 41.0558 14.0715C40.962 14.3137 40.9152 14.5793 40.9152 14.8684C40.9152 15.1575 40.9816 15.4192 41.1144 15.6536C41.2472 15.8801 41.4386 16.0598 41.6886 16.1926C41.9386 16.3176 42.2316 16.3801 42.5675 16.3801C43.0753 16.3801 43.5167 16.2786 43.8917 16.0754C44.2667 15.8723 44.5558 15.6223 44.7589 15.3254C44.9698 15.0286 45.0792 14.7473 45.087 14.4817L45.9777 15.9114C45.8527 16.2317 45.6808 16.5637 45.462 16.9075C45.2511 17.2512 44.9816 17.5754 44.6534 17.8801C44.3253 18.177 43.9308 18.4231 43.4698 18.6184C43.0089 18.8059 42.462 18.8997 41.8292 18.8997C41.0245 18.8997 40.2941 18.7395 39.6378 18.4192C38.9894 18.0911 38.4738 17.6418 38.0909 17.0715C37.7159 16.4934 37.5284 15.8372 37.5284 15.1028C37.5284 14.4387 37.6534 13.8489 37.9034 13.3333C38.1534 12.8176 38.5206 12.384 39.005 12.0325C39.4972 11.6731 40.1105 11.4036 40.8448 11.2239C41.5792 11.0364 42.4308 10.9426 43.3995 10.9426H45.3566ZM57.1222 5.9856V8.37622H49.7394V5.9856H57.1222ZM51.5675 2.85669H54.9425V14.845C54.9425 15.2122 54.9894 15.4934 55.0831 15.6887C55.1847 15.884 55.3331 16.0208 55.5284 16.0989C55.7238 16.1692 55.9698 16.2043 56.2667 16.2043C56.4777 16.2043 56.6652 16.1965 56.8292 16.1809C57.0011 16.1575 57.1456 16.134 57.2628 16.1106L57.2745 18.595C56.9855 18.6887 56.673 18.7629 56.337 18.8176C56.0011 18.8723 55.63 18.8997 55.2238 18.8997C54.4816 18.8997 53.8331 18.7786 53.2784 18.5364C52.7316 18.2864 52.3097 17.8879 52.0128 17.3411C51.7159 16.7942 51.5675 16.0754 51.5675 15.1848V2.85669Z" fill="#495057"/>
<path d="M68.7472 1.60278V18.6653H65.2316V1.60278H68.7472ZM75.5441 8.89185V11.634H67.7863V8.89185H75.5441ZM76.3644 1.60278V4.35669H67.7863V1.60278H76.3644ZM81.755 5.9856V18.6653H78.3683V5.9856H81.755ZM78.1573 2.68091C78.1573 2.18872 78.3292 1.78247 78.673 1.46216C79.0167 1.14185 79.4777 0.981689 80.0558 0.981689C80.6261 0.981689 81.0831 1.14185 81.4269 1.46216C81.7784 1.78247 81.9542 2.18872 81.9542 2.68091C81.9542 3.1731 81.7784 3.57935 81.4269 3.89966C81.0831 4.21997 80.6261 4.38013 80.0558 4.38013C79.4777 4.38013 79.0167 4.21997 78.673 3.89966C78.3292 3.57935 78.1573 3.1731 78.1573 2.68091ZM90.755 5.9856V8.37622H83.3722V5.9856H90.755ZM85.2003 2.85669H88.5753V14.845C88.5753 15.2122 88.6222 15.4934 88.7159 15.6887C88.8175 15.884 88.9659 16.0208 89.1613 16.0989C89.3566 16.1692 89.6027 16.2043 89.8995 16.2043C90.1105 16.2043 90.298 16.1965 90.462 16.1809C90.6339 16.1575 90.7784 16.134 90.8956 16.1106L90.9073 18.595C90.6183 18.6887 90.3058 18.7629 89.9698 18.8176C89.6339 18.8723 89.2628 18.8997 88.8566 18.8997C88.1144 18.8997 87.4659 18.7786 86.9113 18.5364C86.3644 18.2864 85.9425 17.8879 85.6456 17.3411C85.3488 16.7942 85.2003 16.0754 85.2003 15.1848V2.85669ZM95.9816 8.69263V18.6653H92.6066V5.9856H95.7706L95.9816 8.69263ZM95.4894 11.8801H94.5753C94.5753 10.9426 94.6964 10.0989 94.9386 9.34888C95.1808 8.59106 95.5206 7.94653 95.9581 7.41528C96.3956 6.87622 96.9152 6.46606 97.5167 6.18481C98.1261 5.89575 98.8058 5.75122 99.5558 5.75122C100.15 5.75122 100.693 5.83716 101.185 6.00903C101.677 6.18091 102.099 6.45435 102.45 6.82935C102.81 7.20435 103.083 7.70044 103.271 8.31763C103.466 8.93481 103.564 9.68872 103.564 10.5793V18.6653H100.165V10.5676C100.165 10.0051 100.087 9.56763 99.9308 9.25513C99.7745 8.94263 99.5441 8.72388 99.2394 8.59888C98.9425 8.46606 98.5753 8.39966 98.1378 8.39966C97.6847 8.39966 97.2902 8.4895 96.9542 8.66919C96.6261 8.84888 96.3527 9.09888 96.1339 9.41919C95.923 9.73169 95.7628 10.0989 95.6534 10.5208C95.5441 10.9426 95.4894 11.3958 95.4894 11.8801ZM111.966 18.8997C110.982 18.8997 110.099 18.7434 109.318 18.4309C108.536 18.1106 107.872 17.6692 107.325 17.1067C106.786 16.5442 106.372 15.8918 106.083 15.1497C105.794 14.3997 105.65 13.6028 105.65 12.759V12.2903C105.65 11.3293 105.786 10.4504 106.06 9.65356C106.333 8.85669 106.724 8.16528 107.232 7.57935C107.747 6.99341 108.372 6.54419 109.107 6.23169C109.841 5.91138 110.669 5.75122 111.591 5.75122C112.489 5.75122 113.286 5.89966 113.982 6.19653C114.677 6.49341 115.259 6.91528 115.728 7.46216C116.204 8.00903 116.564 8.66528 116.806 9.43091C117.048 10.1887 117.169 11.0325 117.169 11.9622V13.3684H107.091V11.1184H113.853V10.8606C113.853 10.3918 113.767 9.97388 113.595 9.60669C113.431 9.23169 113.181 8.93481 112.845 8.71606C112.509 8.49731 112.079 8.38794 111.556 8.38794C111.11 8.38794 110.728 8.4856 110.407 8.68091C110.087 8.87622 109.825 9.14966 109.622 9.50122C109.427 9.85278 109.278 10.2668 109.177 10.7434C109.083 11.2122 109.036 11.7278 109.036 12.2903V12.759C109.036 13.2668 109.107 13.7356 109.247 14.1653C109.396 14.595 109.603 14.9661 109.868 15.2786C110.142 15.5911 110.47 15.8333 110.853 16.0051C111.243 16.177 111.685 16.2629 112.177 16.2629C112.786 16.2629 113.353 16.1458 113.876 15.9114C114.407 15.6692 114.864 15.3059 115.247 14.8215L116.888 16.6028C116.622 16.9856 116.259 17.3528 115.798 17.7043C115.345 18.0559 114.798 18.345 114.157 18.5715C113.517 18.7903 112.786 18.8997 111.966 18.8997ZM125.946 15.1614C125.946 14.9192 125.876 14.7004 125.735 14.5051C125.595 14.3098 125.333 14.1301 124.95 13.9661C124.575 13.7942 124.032 13.6379 123.321 13.4973C122.681 13.3567 122.083 13.1809 121.528 12.97C120.982 12.7512 120.505 12.4895 120.099 12.1848C119.7 11.8801 119.388 11.5208 119.161 11.1067C118.935 10.6848 118.821 10.2043 118.821 9.66528C118.821 9.13403 118.935 8.63403 119.161 8.16528C119.396 7.69653 119.728 7.28247 120.157 6.9231C120.595 6.55591 121.126 6.27075 121.751 6.06763C122.384 5.85669 123.095 5.75122 123.884 5.75122C124.985 5.75122 125.931 5.927 126.72 6.27856C127.517 6.63013 128.126 7.1145 128.548 7.73169C128.978 8.34106 129.193 9.03638 129.193 9.81763H125.818C125.818 9.4895 125.747 9.19653 125.607 8.93872C125.474 8.6731 125.263 8.46606 124.974 8.31763C124.693 8.16138 124.325 8.08325 123.872 8.08325C123.497 8.08325 123.173 8.14966 122.9 8.28247C122.626 8.40747 122.415 8.57935 122.267 8.7981C122.126 9.00903 122.056 9.24341 122.056 9.50122C122.056 9.69653 122.095 9.87231 122.173 10.0286C122.259 10.177 122.396 10.3137 122.583 10.4387C122.771 10.5637 123.013 10.6809 123.31 10.7903C123.614 10.8918 123.989 10.9856 124.435 11.0715C125.349 11.259 126.165 11.5051 126.884 11.8098C127.603 12.1067 128.173 12.5129 128.595 13.0286C129.017 13.5364 129.228 14.2043 129.228 15.0325C129.228 15.595 129.103 16.1106 128.853 16.5793C128.603 17.0481 128.243 17.4583 127.775 17.8098C127.306 18.1536 126.743 18.4231 126.087 18.6184C125.439 18.8059 124.708 18.8997 123.896 18.8997C122.716 18.8997 121.716 18.6887 120.896 18.2668C120.083 17.845 119.466 17.3098 119.044 16.6614C118.63 16.0051 118.423 15.3333 118.423 14.6458H121.622C121.638 15.1067 121.755 15.4778 121.974 15.759C122.2 16.0403 122.485 16.2434 122.829 16.3684C123.181 16.4934 123.56 16.5559 123.966 16.5559C124.403 16.5559 124.767 16.4973 125.056 16.3801C125.345 16.2551 125.564 16.0911 125.712 15.8879C125.868 15.677 125.946 15.4348 125.946 15.1614ZM138.275 15.1614C138.275 14.9192 138.204 14.7004 138.064 14.5051C137.923 14.3098 137.661 14.1301 137.278 13.9661C136.903 13.7942 136.36 13.6379 135.65 13.4973C135.009 13.3567 134.411 13.1809 133.857 12.97C133.31 12.7512 132.833 12.4895 132.427 12.1848C132.028 11.8801 131.716 11.5208 131.489 11.1067C131.263 10.6848 131.15 10.2043 131.15 9.66528C131.15 9.13403 131.263 8.63403 131.489 8.16528C131.724 7.69653 132.056 7.28247 132.485 6.9231C132.923 6.55591 133.454 6.27075 134.079 6.06763C134.712 5.85669 135.423 5.75122 136.212 5.75122C137.314 5.75122 138.259 5.927 139.048 6.27856C139.845 6.63013 140.454 7.1145 140.876 7.73169C141.306 8.34106 141.521 9.03638 141.521 9.81763H138.146C138.146 9.4895 138.075 9.19653 137.935 8.93872C137.802 8.6731 137.591 8.46606 137.302 8.31763C137.021 8.16138 136.653 8.08325 136.2 8.08325C135.825 8.08325 135.501 8.14966 135.228 8.28247C134.954 8.40747 134.743 8.57935 134.595 8.7981C134.454 9.00903 134.384 9.24341 134.384 9.50122C134.384 9.69653 134.423 9.87231 134.501 10.0286C134.587 10.177 134.724 10.3137 134.911 10.4387C135.099 10.5637 135.341 10.6809 135.638 10.7903C135.943 10.8918 136.318 10.9856 136.763 11.0715C137.677 11.259 138.493 11.5051 139.212 11.8098C139.931 12.1067 140.501 12.5129 140.923 13.0286C141.345 13.5364 141.556 14.2043 141.556 15.0325C141.556 15.595 141.431 16.1106 141.181 16.5793C140.931 17.0481 140.571 17.4583 140.103 17.8098C139.634 18.1536 139.071 18.4231 138.415 18.6184C137.767 18.8059 137.036 18.8997 136.224 18.8997C135.044 18.8997 134.044 18.6887 133.224 18.2668C132.411 17.845 131.794 17.3098 131.372 16.6614C130.958 16.0051 130.751 15.3333 130.751 14.6458H133.95C133.966 15.1067 134.083 15.4778 134.302 15.759C134.528 16.0403 134.814 16.2434 135.157 16.3684C135.509 16.4934 135.888 16.5559 136.294 16.5559C136.732 16.5559 137.095 16.4973 137.384 16.3801C137.673 16.2551 137.892 16.0911 138.04 15.8879C138.196 15.677 138.275 15.4348 138.275 15.1614Z" fill="#5F6F52"/>
</svg>
