<svg width="45" height="45" viewBox="0 0 45 45" fill="none" xmlns="http://www.w3.org/2000/svg">
<g opacity="0.5">
<path d="M22.5 45C10.0588 45 0 34.9412 0 22.5C0 10.0588 10.0588 0 22.5 0C34.9412 0 45 10.0588 45 22.5C45 34.9412 34.9412 45 22.5 45ZM22.5 2.64706C11.5147 2.64706 2.64706 11.5147 2.64706 22.5C2.64706 33.4853 11.5147 42.3529 22.5 42.3529C33.4853 42.3529 42.3529 33.4853 42.3529 22.5C42.3529 11.5147 33.4853 2.64706 22.5 2.64706Z" fill="#5F6F52"/>
<path d="M22.8971 35.3383L10.0588 22.5L22.8971 9.6618L24.75 11.5147L13.7647 22.5L24.75 33.4853L22.8971 35.3383Z" fill="#5F6F52"/>
<path d="M11.9117 21.1765H34.4117V23.8235H11.9117V21.1765Z" fill="#5F6F52"/>
</g>
</svg>
