<svg width="80" height="82" viewBox="0 0 80 82" fill="none" xmlns="http://www.w3.org/2000/svg">
<path d="M11.6957 65.8682C15.0007 69.5888 19.0339 72.6136 23.8138 74.9389C28.1461 77.0465 33.0327 78.5288 38.4865 79.3717C38.3858 72.7229 37.6977 67.0345 36.4439 62.287C35.0916 57.1663 32.904 52.96 29.9123 49.6203L11.6957 65.8682ZM11.6957 65.8682C8.38994 62.1436 5.86406 57.8204 4.12117 52.8835C2.54216 48.4108 1.67057 43.474 1.52266 38.0611C8.05176 38.8153 13.5739 40.0685 18.1116 41.8C22.9996 43.6652 26.9169 46.2797 29.9119 49.6199L11.6957 65.8682ZM31.3372 17.2182L31.3375 17.2178C32.6459 14.3706 34.1331 11.6397 35.799 9.02447C37.1281 6.93786 38.5283 5.00197 39.9988 3.21542C41.4682 5.00224 42.869 6.93843 44.2004 9.02536C45.8687 11.6402 47.3556 14.3693 48.6611 17.2132L48.6614 17.2137C49.9715 20.0646 51.0844 22.9622 52.0005 25.907C52.7994 28.4748 53.3959 30.9583 53.793 33.3583C50.6155 35.0839 47.7771 37.0169 45.2847 39.1612C43.2004 40.9544 41.4287 42.8057 39.9825 44.7179C38.5406 42.8592 36.7789 41.0413 34.7101 39.2615C32.2178 37.1173 29.38 35.1561 26.2032 33.3743C26.6003 30.9693 27.1977 28.4805 27.9983 25.907C28.9144 22.9624 30.0272 20.0662 31.3372 17.2182ZM58.083 43.2785C63.0036 40.2375 69.7682 38.4263 78.4869 37.9568C78.2773 47.5586 75.543 55.8222 70.3239 62.811C65.1761 69.7044 58.2386 74.6 49.449 77.486C49.2797 73.5043 48.9472 69.7748 48.4496 66.2989C47.903 62.4806 47.0705 58.8506 45.9494 55.4114C48.9314 50.4817 52.9684 46.4395 58.083 43.2785Z" stroke="#5F6F52" stroke-width="3"/>
</svg>
