<svg width="14" height="15" viewBox="0 0 14 15" fill="none" xmlns="http://www.w3.org/2000/svg">
<path fill-rule="evenodd" clip-rule="evenodd" d="M4.22102 1.16791C4.43825 0.710175 4.90684 0.39209 5.44836 0.39209H8.55164C9.09316 0.39209 9.56097 0.710175 9.77898 1.16791C10.3089 1.17256 10.7224 1.19661 11.0917 1.34091C11.5325 1.51336 11.9159 1.80641 12.198 2.18656C12.4827 2.56981 12.6169 3.0609 12.8 3.73664L13.3757 5.84842L13.5929 6.50088L13.6115 6.52415C14.3105 7.41945 13.9777 8.75075 13.3121 11.4126C12.8885 13.1062 12.6774 13.9526 12.0459 14.446C11.4144 14.9387 10.5416 14.9387 8.79602 14.9387H5.20398C3.45839 14.9387 2.5856 14.9387 1.95408 14.446C1.32257 13.9526 1.11077 13.1062 0.687947 11.4126C0.0222953 8.75075 -0.310531 7.41945 0.388481 6.52415L0.407101 6.50088L0.62433 5.84842L1.19999 3.73664C1.38386 3.0609 1.51807 2.56903 1.80202 2.18578C2.08421 1.80592 2.46759 1.51314 2.90834 1.34091C3.27763 1.19661 3.69036 1.17179 4.22102 1.16791ZM4.22257 2.33319C3.70898 2.33862 3.50261 2.35801 3.33193 2.42473C3.09451 2.51758 2.88802 2.67541 2.73611 2.88014C2.59956 3.06401 2.51888 3.3208 2.29389 4.1486L1.85167 5.76928C2.64301 5.62886 3.7245 5.62886 5.20321 5.62886H8.79602C10.2755 5.62886 11.3562 5.62886 12.1476 5.76851L11.7061 4.14782C11.4811 3.32003 11.4004 3.06323 11.2639 2.87936C11.112 2.67463 10.9055 2.51681 10.6681 2.42396C10.4974 2.35724 10.291 2.33784 9.77743 2.33241C9.66727 2.56426 9.49364 2.76013 9.27669 2.89731C9.05973 3.03449 8.80832 3.10735 8.55164 3.10745H5.44836C5.19176 3.10742 4.94041 3.03468 4.72346 2.89764C4.50651 2.7606 4.33284 2.56489 4.22257 2.33319Z" fill="white"/>
</svg>
