<svg width="44" height="22" viewBox="0 0 44 22" fill="none" xmlns="http://www.w3.org/2000/svg">
<path d="M15.5586 9.09817C15.7054 8.80439 15.9371 8.5615 16.2236 8.401C16.5101 8.24049 16.8382 8.16978 17.1654 8.19804C17.4926 8.2263 17.8038 8.35222 18.0585 8.55948C18.3133 8.76673 18.4998 9.04575 18.5941 9.36034L22.3218 21.7889L25.3942 15.6525C25.5303 15.3803 25.7394 15.1515 25.9983 14.9915C26.2571 14.8316 26.5554 14.7468 26.8597 14.7468C27.1639 14.7468 27.4622 14.8316 27.721 14.9915C27.9799 15.1515 28.189 15.3803 28.3252 15.6525L31.1455 21.3014H41.0548C42.5302 18.2598 43.2787 14.9169 43.2413 11.5366C43.1768 5.17584 38.0736 0 31.8655 0C26.9406 0 23.6726 3.02521 21.9398 5.22295C20.2111 3.02214 16.9391 0 12.0142 0C5.80606 0 0.702931 5.17584 0.638412 11.5366C0.611933 13.733 0.920315 15.9207 1.55294 18.0243H11.0956L15.5586 9.09817Z" fill="#5F6F52"/>
</svg>
