<svg width="76" height="14" viewBox="0 0 76 14" fill="none" xmlns="http://www.w3.org/2000/svg">
<path d="M2.49329 0.712158L5.07727 5.70923L7.66809 0.712158H9.16516L5.73352 6.94653V10.6653H4.41418V6.94653L0.982544 0.712158H2.49329ZM9.46594 7.04907V6.89185C9.46594 6.35864 9.54342 5.86418 9.69836 5.40845C9.85331 4.94816 10.0766 4.5494 10.3683 4.21216C10.66 3.87036 11.0131 3.60604 11.4279 3.41919C11.8426 3.22778 12.3074 3.13208 12.8224 3.13208C13.3419 3.13208 13.809 3.22778 14.2238 3.41919C14.643 3.60604 14.9985 3.87036 15.2902 4.21216C15.5864 4.5494 15.812 4.94816 15.9669 5.40845C16.1219 5.86418 16.1993 6.35864 16.1993 6.89185V7.04907C16.1993 7.58228 16.1219 8.07674 15.9669 8.53247C15.812 8.9882 15.5864 9.38696 15.2902 9.72876C14.9985 10.066 14.6453 10.3303 14.2306 10.5217C13.8204 10.7086 13.3556 10.802 12.8361 10.802C12.3165 10.802 11.8494 10.7086 11.4347 10.5217C11.02 10.3303 10.6645 10.066 10.3683 9.72876C10.0766 9.38696 9.85331 8.9882 9.69836 8.53247C9.54342 8.07674 9.46594 7.58228 9.46594 7.04907ZM10.7306 6.89185V7.04907C10.7306 7.41821 10.7739 7.76685 10.8605 8.09497C10.9471 8.41854 11.0769 8.70565 11.2501 8.9563C11.4279 9.20695 11.6489 9.40519 11.9132 9.55103C12.1775 9.6923 12.4851 9.76294 12.8361 9.76294C13.1824 9.76294 13.4855 9.6923 13.7452 9.55103C14.0096 9.40519 14.2283 9.20695 14.4015 8.9563C14.5747 8.70565 14.7045 8.41854 14.7911 8.09497C14.8823 7.76685 14.9279 7.41821 14.9279 7.04907V6.89185C14.9279 6.52726 14.8823 6.18319 14.7911 5.85962C14.7045 5.53149 14.5724 5.24211 14.3947 4.99146C14.2215 4.73625 14.0027 4.53573 13.7384 4.38989C13.4786 4.24406 13.1733 4.17114 12.8224 4.17114C12.476 4.17114 12.1707 4.24406 11.9064 4.38989C11.6466 4.53573 11.4279 4.73625 11.2501 4.99146C11.0769 5.24211 10.9471 5.53149 10.8605 5.85962C10.7739 6.18319 10.7306 6.52726 10.7306 6.89185ZM22.5773 3.2688H23.7257V10.5081C23.7257 11.1597 23.5935 11.7157 23.3292 12.176C23.0649 12.6363 22.6958 12.9849 22.2218 13.2219C21.7524 13.4635 21.2101 13.5842 20.5948 13.5842C20.3396 13.5842 20.0389 13.5432 19.6925 13.4612C19.3507 13.3837 19.0135 13.2493 18.6808 13.0579C18.3527 12.871 18.0769 12.6181 17.8536 12.2991L18.5167 11.5471C18.8266 11.9208 19.1502 12.1806 19.4874 12.3264C19.8292 12.4722 20.1665 12.5452 20.4991 12.5452C20.9002 12.5452 21.2465 12.47 21.5382 12.3196C21.8299 12.1692 22.0555 11.9459 22.215 11.6497C22.379 11.358 22.4611 10.998 22.4611 10.5696V4.89575L22.5773 3.2688ZM17.4845 7.04907V6.90552C17.4845 6.34041 17.5506 5.82772 17.6827 5.36743C17.8195 4.90259 18.0131 4.50382 18.2638 4.17114C18.519 3.83846 18.8266 3.58325 19.1866 3.40552C19.5467 3.22323 19.9523 3.13208 20.4034 3.13208C20.8683 3.13208 21.2739 3.21411 21.6202 3.37817C21.9712 3.53768 22.2674 3.77238 22.5089 4.08228C22.755 4.38761 22.9487 4.75675 23.09 5.1897C23.2312 5.62264 23.3292 6.11255 23.3839 6.65942V7.28833C23.3338 7.83065 23.2358 8.31828 23.09 8.75122C22.9487 9.18416 22.755 9.5533 22.5089 9.85864C22.2674 10.164 21.9712 10.3987 21.6202 10.5627C21.2693 10.7222 20.8592 10.802 20.3898 10.802C19.9477 10.802 19.5467 10.7086 19.1866 10.5217C18.8312 10.3349 18.5258 10.0728 18.2706 9.7356C18.0154 9.39836 17.8195 9.00187 17.6827 8.54614C17.5506 8.08586 17.4845 7.58683 17.4845 7.04907ZM18.7491 6.90552V7.04907C18.7491 7.41821 18.7856 7.76457 18.8585 8.08813C18.936 8.4117 19.0522 8.69653 19.2072 8.94263C19.3667 9.18872 19.5695 9.38241 19.8156 9.52368C20.0616 9.6604 20.3556 9.72876 20.6974 9.72876C21.1167 9.72876 21.463 9.63989 21.7365 9.46216C22.0099 9.28442 22.2264 9.04972 22.3859 8.75806C22.5499 8.46639 22.6775 8.14966 22.7687 7.80786V6.1604C22.7185 5.90975 22.6411 5.66821 22.5363 5.43579C22.436 5.19881 22.3038 4.98918 22.1398 4.80688C21.9803 4.62004 21.782 4.47192 21.545 4.36255C21.3081 4.25317 21.0301 4.19849 20.7111 4.19849C20.3647 4.19849 20.0662 4.2714 19.8156 4.41724C19.5695 4.55851 19.3667 4.75448 19.2072 5.00513C19.0522 5.25122 18.936 5.53833 18.8585 5.86646C18.7856 6.19002 18.7491 6.53638 18.7491 6.90552ZM30.0079 9.40063V5.59302C30.0079 5.30135 29.9487 5.04842 29.8302 4.83423C29.7163 4.61548 29.5431 4.44686 29.3107 4.32837C29.0782 4.20988 28.7911 4.15063 28.4493 4.15063C28.1303 4.15063 27.8501 4.20532 27.6085 4.3147C27.3715 4.42407 27.1847 4.56763 27.048 4.74536C26.9158 4.9231 26.8497 5.1145 26.8497 5.31958H25.5851C25.5851 5.05526 25.6534 4.79321 25.7902 4.53345C25.9269 4.27368 26.1228 4.03898 26.3781 3.82935C26.6378 3.61515 26.9477 3.44653 27.3077 3.32349C27.6723 3.19588 28.0779 3.13208 28.5245 3.13208C29.0623 3.13208 29.5363 3.22323 29.9464 3.40552C30.3611 3.58781 30.6847 3.86353 30.9171 4.23267C31.1541 4.59725 31.2726 5.05526 31.2726 5.60669V9.052C31.2726 9.2981 31.2931 9.56014 31.3341 9.83813C31.3797 10.1161 31.4458 10.3554 31.5323 10.5559V10.6653H30.213C30.1492 10.5194 30.0991 10.3258 30.0626 10.0842C30.0262 9.83813 30.0079 9.61027 30.0079 9.40063ZM30.2267 6.18091L30.2404 7.06958H28.962C28.602 7.06958 28.2807 7.0992 27.9982 7.15845C27.7156 7.21313 27.4786 7.29744 27.2872 7.41138C27.0958 7.52531 26.95 7.66886 26.8497 7.84204C26.7495 8.01066 26.6993 8.2089 26.6993 8.43677C26.6993 8.66919 26.7517 8.8811 26.8566 9.07251C26.9614 9.26392 27.1186 9.41659 27.3282 9.53052C27.5424 9.63989 27.8045 9.69458 28.1144 9.69458C28.5017 9.69458 28.8435 9.61255 29.1398 9.44849C29.436 9.28442 29.6707 9.0839 29.8439 8.84692C30.0216 8.60994 30.1173 8.3798 30.131 8.15649L30.671 8.76489C30.6391 8.9563 30.5525 9.16821 30.4113 9.40063C30.27 9.63306 30.0809 9.85636 29.8439 10.0706C29.6115 10.2802 29.3335 10.4556 29.0099 10.5969C28.6909 10.7336 28.3309 10.802 27.9298 10.802C27.4285 10.802 26.9887 10.704 26.6105 10.5081C26.2368 10.3121 25.9451 10.05 25.7355 9.72192C25.5304 9.38924 25.4279 9.01782 25.4279 8.60767C25.4279 8.21118 25.5053 7.86255 25.6603 7.56177C25.8152 7.25643 26.0385 7.0035 26.3302 6.80298C26.6219 6.5979 26.9728 6.44295 27.3829 6.33813C27.7931 6.23332 28.2511 6.18091 28.757 6.18091H30.2267ZM42.2306 8.14966C42.2306 7.91724 42.1941 7.71216 42.1212 7.53442C42.0529 7.35213 41.9298 7.18807 41.7521 7.04224C41.5789 6.8964 41.3374 6.75741 41.0275 6.62524C40.7221 6.49308 40.3348 6.35864 39.8654 6.22192C39.3732 6.07609 38.9288 5.91431 38.5323 5.73657C38.1359 5.55428 37.7963 5.34692 37.5138 5.1145C37.2312 4.88208 37.0148 4.61548 36.8644 4.3147C36.714 4.01392 36.6388 3.66984 36.6388 3.28247C36.6388 2.8951 36.7185 2.53735 36.8781 2.20923C37.0376 1.8811 37.2654 1.59627 37.5616 1.35474C37.8624 1.10864 38.2202 0.917236 38.6349 0.780518C39.0496 0.643799 39.5122 0.575439 40.0226 0.575439C40.77 0.575439 41.4034 0.718994 41.923 1.0061C42.4471 1.28866 42.8458 1.66007 43.1193 2.12036C43.3927 2.57609 43.5294 3.06372 43.5294 3.58325H42.2169C42.2169 3.20955 42.1372 2.87915 41.9777 2.59204C41.8182 2.30037 41.5766 2.07251 41.2531 1.90845C40.9295 1.73983 40.5193 1.65552 40.0226 1.65552C39.5532 1.65552 39.1658 1.72616 38.8605 1.86743C38.5551 2.00871 38.3273 2.20011 38.1769 2.44165C38.031 2.68319 37.9581 2.9589 37.9581 3.2688C37.9581 3.47843 38.0014 3.66984 38.088 3.84302C38.1792 4.01164 38.3182 4.16886 38.505 4.3147C38.6964 4.46053 38.9379 4.59497 39.2296 4.71802C39.5258 4.84106 39.879 4.95955 40.2892 5.07349C40.8543 5.23299 41.3419 5.41073 41.7521 5.60669C42.1622 5.80265 42.4995 6.02368 42.7638 6.26978C43.0327 6.51131 43.2309 6.78703 43.3585 7.09692C43.4907 7.40226 43.5568 7.74862 43.5568 8.13599C43.5568 8.54159 43.4747 8.90845 43.3107 9.23657C43.1466 9.5647 42.9119 9.84497 42.6066 10.0774C42.3012 10.3098 41.9344 10.4898 41.506 10.6174C41.0822 10.7405 40.6082 10.802 40.0841 10.802C39.6238 10.802 39.1704 10.7382 38.7238 10.6106C38.2817 10.483 37.8784 10.2916 37.5138 10.0364C37.1538 9.78117 36.8644 9.46672 36.6456 9.09302C36.4314 8.71476 36.3243 8.27726 36.3243 7.78052H37.6368C37.6368 8.12231 37.7029 8.41626 37.8351 8.66235C37.9672 8.90389 38.1473 9.10441 38.3751 9.26392C38.6075 9.42342 38.8696 9.54191 39.1613 9.61938C39.4575 9.6923 39.7651 9.72876 40.0841 9.72876C40.5444 9.72876 40.934 9.66496 41.2531 9.53735C41.5721 9.40975 41.8136 9.22746 41.9777 8.99048C42.1463 8.7535 42.2306 8.47323 42.2306 8.14966ZM48.1437 3.2688V4.2395H44.1447V3.2688H48.1437ZM45.4982 1.47095H46.7628V8.83325C46.7628 9.0839 46.8016 9.27303 46.879 9.40063C46.9565 9.52824 47.0568 9.61255 47.1798 9.65356C47.3029 9.69458 47.435 9.71509 47.5763 9.71509C47.6811 9.71509 47.7905 9.70597 47.9044 9.68774C48.0229 9.66496 48.1118 9.64673 48.171 9.63306L48.1779 10.6653C48.0776 10.6972 47.9454 10.7268 47.7814 10.7542C47.6219 10.7861 47.4282 10.802 47.2003 10.802C46.8904 10.802 46.6056 10.7405 46.3458 10.6174C46.0861 10.4944 45.8787 10.2893 45.7238 10.0022C45.5734 9.71053 45.4982 9.3186 45.4982 8.82642V1.47095ZM54.1525 8.9563V3.2688H55.424V10.6653H54.214L54.1525 8.9563ZM54.3917 7.39771L54.9181 7.38403C54.9181 7.87622 54.8657 8.33195 54.7609 8.75122C54.6606 9.16593 54.4965 9.52596 54.2687 9.8313C54.0408 10.1366 53.7423 10.3759 53.3732 10.5491C53.004 10.7177 52.5551 10.802 52.0265 10.802C51.6665 10.802 51.3361 10.7496 51.0353 10.6448C50.7391 10.54 50.4838 10.3782 50.2697 10.1594C50.0555 9.94067 49.8891 9.65584 49.7706 9.30493C49.6567 8.95402 49.5997 8.53247 49.5997 8.04028V3.2688H50.8644V8.05396C50.8644 8.38664 50.9008 8.66235 50.9738 8.8811C51.0512 9.0953 51.1538 9.26619 51.2814 9.3938C51.4135 9.51685 51.5594 9.60343 51.7189 9.65356C51.8829 9.70369 52.0516 9.72876 52.2247 9.72876C52.7625 9.72876 53.1886 9.62622 53.5031 9.42114C53.8175 9.21151 54.0431 8.93123 54.1798 8.58032C54.3211 8.22485 54.3917 7.83065 54.3917 7.39771ZM62.0138 9.22974V0.165283H63.2853V10.6653H62.1232L62.0138 9.22974ZM57.0372 7.04907V6.90552C57.0372 6.34041 57.1056 5.82772 57.2423 5.36743C57.3836 4.90259 57.5818 4.50382 57.837 4.17114C58.0968 3.83846 58.4044 3.58325 58.7599 3.40552C59.1199 3.22323 59.521 3.13208 59.963 3.13208C60.4279 3.13208 60.8335 3.21411 61.1798 3.37817C61.5307 3.53768 61.8269 3.77238 62.0685 4.08228C62.3146 4.38761 62.5083 4.75675 62.6495 5.1897C62.7908 5.62264 62.8888 6.11255 62.9435 6.65942V7.28833C62.8934 7.83065 62.7954 8.31828 62.6495 8.75122C62.5083 9.18416 62.3146 9.5533 62.0685 9.85864C61.8269 10.164 61.5307 10.3987 61.1798 10.5627C60.8289 10.7222 60.4187 10.802 59.9493 10.802C59.5164 10.802 59.1199 10.7086 58.7599 10.5217C58.4044 10.3349 58.0968 10.0728 57.837 9.7356C57.5818 9.39836 57.3836 9.00187 57.2423 8.54614C57.1056 8.08586 57.0372 7.58683 57.0372 7.04907ZM58.3087 6.90552V7.04907C58.3087 7.41821 58.3452 7.76457 58.4181 8.08813C58.4956 8.4117 58.6141 8.69653 58.7736 8.94263C58.9331 9.18872 59.1359 9.38241 59.382 9.52368C59.6281 9.6604 59.922 9.72876 60.2638 9.72876C60.6831 9.72876 61.0271 9.63989 61.296 9.46216C61.5695 9.28442 61.7882 9.04972 61.9523 8.75806C62.1163 8.46639 62.2439 8.14966 62.3351 7.80786V6.1604C62.2804 5.90975 62.2006 5.66821 62.0958 5.43579C61.9956 5.19881 61.8634 4.98918 61.6993 4.80688C61.5398 4.62004 61.3416 4.47192 61.1046 4.36255C60.8722 4.25317 60.5965 4.19849 60.2775 4.19849C59.9311 4.19849 59.6326 4.2714 59.382 4.41724C59.1359 4.55851 58.9331 4.75448 58.7736 5.00513C58.6141 5.25122 58.4956 5.53833 58.4181 5.86646C58.3452 6.19002 58.3087 6.53638 58.3087 6.90552ZM66.6281 3.2688V10.6653H65.3566V3.2688H66.6281ZM65.2609 1.30688C65.2609 1.10181 65.3224 0.92863 65.4454 0.787354C65.573 0.646077 65.7599 0.575439 66.006 0.575439C66.2475 0.575439 66.4321 0.646077 66.5597 0.787354C66.6919 0.92863 66.7579 1.10181 66.7579 1.30688C66.7579 1.50285 66.6919 1.67147 66.5597 1.81274C66.4321 1.94946 66.2475 2.01782 66.006 2.01782C65.7599 2.01782 65.573 1.94946 65.4454 1.81274C65.3224 1.67147 65.2609 1.50285 65.2609 1.30688ZM68.3234 7.04907V6.89185C68.3234 6.35864 68.4008 5.86418 68.5558 5.40845C68.7107 4.94816 68.934 4.5494 69.2257 4.21216C69.5174 3.87036 69.8706 3.60604 70.2853 3.41919C70.7 3.22778 71.1648 3.13208 71.6798 3.13208C72.1993 3.13208 72.6665 3.22778 73.0812 3.41919C73.5004 3.60604 73.8559 3.87036 74.1476 4.21216C74.4438 4.5494 74.6694 4.94816 74.8243 5.40845C74.9793 5.86418 75.0568 6.35864 75.0568 6.89185V7.04907C75.0568 7.58228 74.9793 8.07674 74.8243 8.53247C74.6694 8.9882 74.4438 9.38696 74.1476 9.72876C73.8559 10.066 73.5027 10.3303 73.088 10.5217C72.6779 10.7086 72.213 10.802 71.6935 10.802C71.174 10.802 70.7068 10.7086 70.2921 10.5217C69.8774 10.3303 69.5219 10.066 69.2257 9.72876C68.934 9.38696 68.7107 8.9882 68.5558 8.53247C68.4008 8.07674 68.3234 7.58228 68.3234 7.04907ZM69.588 6.89185V7.04907C69.588 7.41821 69.6313 7.76685 69.7179 8.09497C69.8045 8.41854 69.9344 8.70565 70.1075 8.9563C70.2853 9.20695 70.5063 9.40519 70.7706 9.55103C71.035 9.6923 71.3426 9.76294 71.6935 9.76294C72.0398 9.76294 72.3429 9.6923 72.6027 9.55103C72.867 9.40519 73.0857 9.20695 73.2589 8.9563C73.4321 8.70565 73.562 8.41854 73.6486 8.09497C73.7397 7.76685 73.7853 7.41821 73.7853 7.04907V6.89185C73.7853 6.52726 73.7397 6.18319 73.6486 5.85962C73.562 5.53149 73.4298 5.24211 73.2521 4.99146C73.0789 4.73625 72.8601 4.53573 72.5958 4.38989C72.3361 4.24406 72.0307 4.17114 71.6798 4.17114C71.3335 4.17114 71.0281 4.24406 70.7638 4.38989C70.504 4.53573 70.2853 4.73625 70.1075 4.99146C69.9344 5.24211 69.8045 5.53149 69.7179 5.85962C69.6313 6.18319 69.588 6.52726 69.588 6.89185Z" fill="#495057"/>
</svg>
