<svg width="26" height="26" viewBox="0 0 26 26" fill="none" xmlns="http://www.w3.org/2000/svg">
<path fill-rule="evenodd" clip-rule="evenodd" d="M13.0011 4.91919C13.8917 4.91919 14.8052 4.94211 15.6907 4.97961L16.7365 5.02961L17.7375 5.08898L18.675 5.15252L19.5313 5.21919C20.4605 5.29031 21.3349 5.68684 22.0006 6.33902C22.6663 6.9912 23.0807 7.85725 23.1709 8.78481L23.2125 9.22752L23.2907 10.1754C23.3636 11.1577 23.4177 12.2286 23.4177 13.2525C23.4177 14.2765 23.3636 15.3473 23.2907 16.3296L23.2125 17.2775C23.199 17.4296 23.1855 17.5765 23.1709 17.7202C23.0807 18.648 22.6661 19.5141 22.0002 20.1663C21.3343 20.8185 20.4596 21.215 19.5302 21.2859L18.6761 21.3515L17.7386 21.4161L16.7365 21.4754L15.6907 21.5254C14.7947 21.5644 13.8979 21.5845 13.0011 21.5859C12.1042 21.5845 11.2075 21.5644 10.3115 21.5254L9.26566 21.4754L8.26462 21.4161L7.32712 21.3515L6.47087 21.2859C5.54165 21.2147 4.66728 20.8182 4.00157 20.166C3.33586 19.5138 2.92147 18.6478 2.83129 17.7202L2.78962 17.2775L2.71149 16.3296C2.63185 15.3058 2.58946 14.2794 2.58441 13.2525C2.58441 12.2286 2.63858 11.1577 2.71149 10.1754L2.78962 9.22752C2.80316 9.07544 2.8167 8.92856 2.83129 8.78481C2.92143 7.85742 3.33568 6.9915 4.00117 6.33934C4.66667 5.68718 5.5408 5.29055 6.46983 5.21919L7.32504 5.15252L8.26254 5.08898L9.26462 5.02961L10.3105 4.97961C11.2068 4.94068 12.1039 4.92054 13.0011 4.91919ZM10.9177 10.7265V15.7786C10.9177 16.2598 11.4386 16.5598 11.8552 16.3202L16.2302 13.7942C16.3254 13.7394 16.4045 13.6605 16.4595 13.5654C16.5145 13.4703 16.5434 13.3624 16.5434 13.2525C16.5434 13.1427 16.5145 13.0348 16.4595 12.9397C16.4045 12.8446 16.3254 12.7657 16.2302 12.7109L11.8552 10.1859C11.7602 10.131 11.6524 10.1021 11.5426 10.1021C11.4329 10.1021 11.3251 10.1311 11.2301 10.186C11.135 10.2409 11.0562 10.3198 11.0013 10.4149C10.9465 10.51 10.9177 10.6178 10.9177 10.7275" fill="#5F6F52"/>
</svg>
